<?xml version="1.0" encoding="UTF-8" standalone="no"?>
<!-- Created with Inkscape (http://www.inkscape.org/) -->

<svg
   width="11.083046mm"
   height="6.184638mm"
   viewBox="0 0 11.083046 6.184638"
   version="1.1"
   id="svg1"
   fill="currentcolor"
   xmlns="http://www.w3.org/2000/svg"
   xmlnssvg="http://www.w3.org/2000/svg">
  <defs
     id="defs1" />
  <g
     id="layer1"
     transform="translate(-3.6715916,-1.8541493)">
    <path
       id="rect1"
       style="fill-opacity:1;stroke:none;stroke-width:0.314346;stroke-linecap:round;stroke-linejoin:round;stroke-dasharray:none;stroke-opacity:1"
       d="m 4.5032991,2.0354921 c -0.460765,0 -0.8317074,0.3709424 -0.8317074,0.8317074 v 4.1585372 c 0,0.460765 0.3709424,0.8317074 0.8317074,0.8317074 h 4.1585372 c 0.460765,0 0.8317074,-0.3709424 0.8317074,-0.8317074 V 2.8671995 c 0,-0.460765 -0.3709424,-0.8317074 -0.8317074,-0.8317074 z M 5.1449484,2.430878 h 2.8745889 c 0.4102643,0 0.7452878,0.3350235 0.7452878,0.7452879 v 2.8745888 c 0,0.4102643 -0.3350235,0.7465873 -0.7452878,0.7465873 H 5.1449484 C 4.7346842,6.7973421 4.3996607,6.461019 4.3996607,6.0507547 V 3.1761659 c 0,-0.4102644 0.3350235,-0.7452879 0.7452877,-0.7452879 z m 0,0.3265103 c -0.2348059,0 -0.4187777,0.1839715 -0.4187777,0.4187776 v 2.8745888 c 0,0.234806 0.1839718,0.4187776 0.4187777,0.4187776 h 2.8745889 c 0.2348061,0 0.4187777,-0.1839716 0.4187777,-0.4187776 V 3.1761659 c 0,-0.2348061 -0.1839717,-0.4187776 -0.4187777,-0.4187776 z m 0.3456784,0.6072113 a 0.15717306,0.15717306 0 0 1 0.1111109,0.046134 l 0.9805051,0.9805049 0.9805051,-0.980505 a 0.15717306,0.15717306 0 0 1 0.2222219,0 0.15717306,0.15717306 0 0 1 0,0.2222218 l -0.9805051,0.980505 0.9805051,0.9805052 a 0.15717306,0.15717306 0 0 1 0,0.2222218 0.15717306,0.15717306 0 0 1 -0.2222219,0 L 6.5822428,4.8356821 5.6017377,5.8161872 a 0.15717306,0.15717306 0 0 1 -0.2222218,0 0.15717306,0.15717306 0 0 1 0,-0.2222218 L 6.360021,4.6134602 5.3795159,3.6329552 a 0.15717306,0.15717306 0 0 1 0,-0.2222218 0.15717306,0.15717306 0 0 1 0.1111109,-0.046134 z" />

  </g>
</svg>
